<?xml version="1.0" encoding="utf-8"?>
<!-- Generator: Adobe Illustrator 23.0.6, SVG Export Plug-In . SVG Version: 6.00 Build 0)  -->
<svg version="1.1" id="Layer_1" xmlns="http://www.w3.org/2000/svg" xmlns:xlink="http://www.w3.org/1999/xlink" x="0px" y="0px"
	 viewBox="0 0 8192 2500" style="enable-background:new 0 0 8192 2500;" xml:space="preserve">
<style type="text/css">
	.st0{fill:#FFFFFF;}
</style>
<title>Asset 9</title>
<g>
	<g id="Layer_1-2">
		<polygon class="st0" points="596,840 595.8,319.1 0,319.1 0,1883 297.9,2180.9 1117,2181 1117,1585 596,1585 596,1436 1117,1436 
			1117,840 		"/>
		<polygon class="st0" points="2755,840 2755,1585 2606,1585 2606,840 2011,840 2011,1585 1862,1585 1862,840 1266,840 1266,1883 
			1563.9,2180.9 3351,2181 3351,840 		"/>
		<polygon class="st0" points="3500,840 4096,840 4096,2180.9 3500.2,2180.9 		"/>
		<polygon class="st0" points="3500.2,319.1 4096,319.1 4096,692 3500,692 		"/>
		<polygon class="st0" points="5809,840 5511,1138.3 5511,1883 5808.9,2180.9 6703,2181 6703,1585 6107,1585 6107,1436 6703,1436 
			6703,840 		"/>
		<polygon class="st0" points="7894,840 7448,840 7448,319 6852,319 6852,2181 7447,2181 7447,1436 7596,1436 7596,2181 
			8192,2180.9 8192,1138.3 		"/>
		<polygon class="st0" points="4841,840 4840.7,319.1 4245,319 4245,1883 4542.8,2180.9 5362,2180.9 5362,1585.1 4841,1585 
			4841,1436 5362,1436 5362,840 		"/>
	</g>
</g>
</svg>
